# xmcd
# 
# Track frame offsets:
#     150
#     13145
#     25337
#     38307
#     53600
#     67787
#     81687
#     94687
#     108065
#     121972
#     137215
#     151932
# 
# Disc length: 2187
# 
# Revision: 4
# Processed by: cddbd v1.5.2PL0 Copyright (c) Steve Scherf et al.
# Submitted via: fre:ac v1.0.31
# 
DISCID=8c08890c
DTITLE=Columbia Blues - The Best Of Muddy Waters
DYEAR=1987
DGENRE=Blues
TTITLE0=I Just Want To Make Love To You
TTITLE1=Long Distance Call
TTITLE2=Louisana Blues
TTITLE3=Honey Bee
TTITLE4=Rollin' Stone
TTITLE5=I'm Ready
TTITLE6=Hoochie Coochie
TTITLE7=She Moves Me
TTITLE8=I Want You To Love Me
TTITLE9=Standing Around Crying
TTITLE10=Still a Fool
TTITLE11=I Can't Be Satisfied
EXTD=MCA Records 1987\nOriginally released a Chess LP 1427 YEAR: 1987
EXTT0=
EXTT1=
EXTT2=
EXTT3=
EXTT4=
EXTT5=
EXTT6=
EXTT7=
EXTT8=
EXTT9=
EXTT10=
EXTT11=
PLAYORDER=
